<svg id="레이어_1" data-name="레이어 1" xmlns="http://www.w3.org/2000/svg" viewBox="0 0 358.51 334.42"><defs><style>.cls-1{fill:#e2a847;}.cls-2{fill:none;stroke:#000;stroke-miterlimit:10;stroke-width:10px;}.cls-3{fill:#fff;}</style></defs><path class="cls-1" d="M5.59,329.42A2.16,2.16,0,0,1,5,328.19c0-.85,1.07-2.61,4.15-4.8l.35-.25,36-36.38-1.69-3.23a7.22,7.22,0,0,1-.78-3.07c2.1-1.33,24.88-17.08,31.25-71.69l222.42-193,.27-.34C297.05,15.35,305.75,5,317.63,5c8,0,16,4.69,23.68,13.93l.37.44.45.34c.1.08,10.88,8.5,11.36,21.17.36,9.48-5,19.29-16,29.13l-.24.21-187,215.69c-10,1.23-53.22,7.74-72.15,29.93l0,0a1.72,1.72,0,0,1-1.22.51,3.79,3.79,0,0,1-1.67-.5L72,314.24,56.77,329.42Z"/><path d="M317.63,10h0c6.45,0,13.12,4.08,19.84,12.13l.66.85,1,.7c.58.47,9.08,7.5,9.41,17.47.27,7.9-4.57,16.36-14.38,25.14l-.47.42-.42.48-185.5,214C135,283,95.68,289.89,76,310.7l-5-2.56-5.14,5.14L54.7,324.42H15.26l31.22-31.55L52,287.8l-3.08-5.42c9.81-8.19,24.94-30.21,30.11-71.1L299.65,19.84l.62-.5.55-.71c.47-.53,7.63-8.63,16.81-8.63m-16.78,8.6h0M317.63,0C303.11,0,293.1,12.29,293.1,12.29l-223.57,194c-5.27,49.07-24.46,67.26-29.12,69.94s-1,9.63-1,9.63L6.24,319.32c-12.38,8.83-2.52,15.1-2.52,15.1H58.84l14.07-14.07a8.62,8.62,0,0,0,3.94,1,6.73,6.73,0,0,0,5.06-2.3c20-23.39,70.86-28.44,70.86-28.44l188-216.91c37.15-33.25,4.36-58,4.36-58C335.21,3.82,325.72,0,317.63,0Z"/><line class="cls-2" x1="79.61" y1="208.35" x2="148.79" y2="277.54"/><line class="cls-2" x1="83.11" y1="211.85" x2="152.29" y2="281.04"/><line class="cls-2" x1="73.81" y1="311.83" x2="46.68" y2="284.7"/><line class="cls-2" x1="77.36" y1="315.38" x2="50.24" y2="288.26"/><path class="cls-3" d="M50.19,281.33a139.49,139.49,0,0,0,28.51-67l66.73,67.3s-47.7,8-67.72,27.4Z"/><path class="cls-3" d="M88.1,207.65"/><polygon class="cls-3" points="84.43 206.39 99.22 193.55 166.06 260.5 153.34 275.06 84.43 206.39"/><line class="cls-2" x1="97.28" y1="190.45" x2="168.01" y2="261.19"/></svg>